{
  "accessors": [
    {
      "bufferView": 2,
      "componentType": 5126,
      "count": 65532,
      "max": [
        13.174386024475098,
        15.711182594299316,
        97.99042510986328
      ],
      "min": [
        -15.563578605651855,
        -11.459612846374512,
        8.39299488067627
      ],
      "type": "VEC3"
    },
    {
      "bufferView": 2,
      "byteOffset": 786384,
      "componentType": 5126,
      "count": 65532,
      "max": [
        0.9999997615814209,
        0.999999463558197,
        0.9999996423721313
      ],
      "min": [
        -0.9999998807907104,
        -0.9999986886978149,
        -0.9999963641166687
      ],
      "type": "VEC3"
    },
    {
      "bufferView": 1,
      "componentType": 5126,
      "count": 65532,
      "max": [
        0.999743640422821,
        0.9880369901657104
      ],
      "min": [
        0.000244140625,
        0.0002515508094802499
      ],
      "type": "VEC2"
    },
    {
      "bufferView": 0,
      "componentType": 5125,
      "count": 242862,
      "type": "SCALAR"
    },
    {
      "bufferView": 2,
      "byteOffset": 1572768,
      "componentType": 5126,
      "count": 65532,
      "max": [
        11.654515266418457,
        7.5041913986206055,
        58.17282485961914
      ],
      "min": [
        -15.597634315490723,
        -11.449965476989746,
        8.490222930908203
      ],
      "type": "VEC3"
    },
    {
      "bufferView": 2,
      "byteOffset": 2359152,
      "componentType": 5126,
      "count": 65532,
      "max": [
        0.9999988675117493,
        1.0,
        0.9999999403953552
      ],
      "min": [
        -1.0,
        -1.0,
        -0.9999947547912598
      ],
      "type": "VEC3"
    },
    {
      "bufferView": 1,
      "byteOffset": 524256,
      "componentType": 5126,
      "count": 65532,
      "max": [
        0.9996505379676819,
        0.9548338651657104
      ],
      "min": [
        0.000244140625,
        0.0002578092971816659
      ],
      "type": "VEC2"
    },
    {
      "bufferView": 0,
      "byteOffset": 971448,
      "componentType": 5125,
      "count": 238929,
      "type": "SCALAR"
    },
    {
      "bufferView": 2,
      "byteOffset": 3145536,
      "componentType": 5126,
      "count": 65533,
      "max": [
        4.119183540344238,
        10.078658103942871,
        50.17695617675781
      ],
      "min": [
        -13.83352279663086,
        -9.531864166259766,
        9.117147445678711
      ],
      "type": "VEC3"
    },
    {
      "bufferView": 2,
      "byteOffset": 3931932,
      "componentType": 5126,
      "count": 65533,
      "max": [
        0.9999895095825195,
        1.0,
        0.9999999403953552
      ],
      "min": [
        -0.9999998807907104,
        -0.9999998807907104,
        -0.9999997615814209
      ],
      "type": "VEC3"
    },
    {
      "bufferView": 1,
      "byteOffset": 1048512,
      "componentType": 5126,
      "count": 65533,
      "max": [
        0.9997395277023315,
        0.9763182401657104
      ],
      "min": [
        0.000244140625,
        0.000250954763032496
      ],
      "type": "VEC2"
    },
    {
      "bufferView": 0,
      "byteOffset": 1927164,
      "componentType": 5125,
      "count": 237213,
      "type": "SCALAR"
    },
    {
      "bufferView": 2,
      "byteOffset": 4718328,
      "componentType": 5126,
      "count": 65532,
      "max": [
        13.223453521728516,
        15.67978572845459,
        32.47877883911133
      ],
      "min": [
        -12.29615306854248,
        -1.1013978719711304,
        9.79273796081543
      ],
      "type": "VEC3"
    },
    {
      "bufferView": 2,
      "byteOffset": 5504712,
      "componentType": 5126,
      "count": 65532,
      "max": [
        0.9999904632568359,
        0.9999998807907104,
        0.9999999403953552
      ],
      "min": [
        -1.0,
        -0.9999997019767761,
        -0.9999997019767761
      ],
      "type": "VEC3"
    },
    {
      "bufferView": 1,
      "byteOffset": 1572776,
      "componentType": 5126,
      "count": 65532,
      "max": [
        0.9997507333755493,
        0.9899901151657104
      ],
      "min": [
        0.000244140625,
        0.00025041832122951746
      ],
      "type": "VEC2"
    },
    {
      "bufferView": 0,
      "byteOffset": 2876016,
      "componentType": 5125,
      "count": 210165,
      "type": "SCALAR"
    },
    {
      "bufferView": 2,
      "byteOffset": 6291096,
      "componentType": 5126,
      "count": 65532,
      "max": [
        13.163702011108398,
        15.679781913757324,
        58.42919158935547
      ],
      "min": [
        -6.870516300201416,
        -3.824021816253662,
        9.758042335510254
      ],
      "type": "VEC3"
    },
    {
      "bufferView": 2,
      "byteOffset": 7077480,
      "componentType": 5126,
      "count": 65532,
      "max": [
        1.0,
        0.9999988079071045,
        0.9999999403953552
      ],
      "min": [
        -1.0,
        -0.9999999403953552,
        -0.9999969601631165
      ],
      "type": "VEC3"
    },
    {
      "bufferView": 1,
      "byteOffset": 2097032,
      "componentType": 5126,
      "count": 65532,
      "max": [
        0.9997138977050781,
        0.9938963651657104
      ],
      "min": [
        0.000244140625,
        0.0002442790428176522
      ],
      "type": "VEC2"
    },
    {
      "bufferView": 0,
      "byteOffset": 3716676,
      "componentType": 5125,
      "count": 203595,
      "type": "SCALAR"
    },
    {
      "bufferView": 2,
      "byteOffset": 7863864,
      "componentType": 5126,
      "count": 65532,
      "max": [
        13.189309120178223,
        15.079670906066895,
        96.88811492919922
      ],
      "min": [
        -5.9758195877075195,
        -2.578908920288086,
        14.691442489624023
      ],
      "type": "VEC3"
    },
    {
      "bufferView": 2,
      "byteOffset": 8650248,
      "componentType": 5126,
      "count": 65532,
      "max": [
        0.9999999403953552,
        1.0,
        0.9999992251396179
      ],
      "min": [
        -0.9999994039535522,
        -1.0,
        -0.999998927116394
      ],
      "type": "VEC3"
    },
    {
      "bufferView": 1,
      "byteOffset": 2621288,
      "componentType": 5126,
      "count": 65532,
      "max": [
        0.9997466206550598,
        0.9636229276657104
      ],
      "min": [
        0.000244140625,
        0.00025292171631008387
      ],
      "type": "VEC2"
    },
    {
      "bufferView": 0,
      "byteOffset": 4531056,
      "componentType": 5125,
      "count": 214569,
      "type": "SCALAR"
    },
    {
      "bufferView": 2,
      "byteOffset": 9436632,
      "componentType": 5126,
      "count": 65532,
      "max": [
        3.7509191036224365,
        7.472828388214111,
        99.23764038085938
      ],
      "min": [
        -6.4049296379089355,
        -2.913790702819824,
        46.968605041503906
      ],
      "type": "VEC3"
    },
    {
      "bufferView": 2,
      "byteOffset": 10223016,
      "componentType": 5126,
      "count": 65532,
      "max": [
        0.9999993443489075,
        1.0,
        0.9999996423721313
      ],
      "min": [
        -1.0,
        -1.0,
        -0.9999993443489075
      ],
      "type": "VEC3"
    },
    {
      "bufferView": 1,
      "byteOffset": 3145544,
      "componentType": 5126,
      "count": 65532,
      "max": [
        0.9997495412826538,
        0.9792479276657104
      ],
      "min": [
        0.000244140625,
        0.0002547098556533456
      ],
      "type": "VEC2"
    },
    {
      "bufferView": 0,
      "byteOffset": 5389332,
      "componentType": 5125,
      "count": 228144,
      "type": "SCALAR"
    },
    {
      "bufferView": 2,
      "byteOffset": 11009400,
      "componentType": 5126,
      "count": 65532,
      "max": [
        4.997520923614502,
        15.724038124084473,
        74.2778091430664
      ],
      "min": [
        -15.4817476272583,
        -3.309316873550415,
        9.129392623901367
      ],
      "type": "VEC3"
    },
    {
      "bufferView": 2,
      "byteOffset": 11795784,
      "componentType": 5126,
      "count": 65532,
      "max": [
        1.0,
        1.0,
        0.9999995231628418
      ],
      "min": [
        -1.0,
        -1.0,
        -0.9999986290931702
      ],
      "type": "VEC3"
    },
    {
      "bufferView": 1,
      "byteOffset": 3669800,
      "componentType": 5126,
      "count": 65532,
      "max": [
        0.9996920228004456,
        0.9851073026657104
      ],
      "min": [
        0.000244140625,
        0.0002464248100295663
      ],
      "type": "VEC2"
    },
    {
      "bufferView": 0,
      "byteOffset": 6301908,
      "componentType": 5125,
      "count": 226725,
      "type": "SCALAR"
    },
    {
      "bufferView": 2,
      "byteOffset": 12582168,
      "componentType": 5126,
      "count": 65532,
      "max": [
        5.0089921951293945,
        8.384663581848145,
        78.38975524902344
      ],
      "min": [
        -6.6228132247924805,
        -3.9169180393218994,
        46.81867218017578
      ],
      "type": "VEC3"
    },
    {
      "bufferView": 2,
      "byteOffset": 13368552,
      "componentType": 5126,
      "count": 65532,
      "max": [
        1.0,
        0.9999999403953552,
        0.9999995231628418
      ],
      "min": [
        -0.9999995827674866,
        -1.0,
        -0.9999995827674866
      ],
      "type": "VEC3"
    },
    {
      "bufferView": 1,
      "byteOffset": 4194056,
      "componentType": 5126,
      "count": 65532,
      "max": [
        0.9997421503067017,
        0.9831541776657104
      ],
      "min": [
        0.000244140625,
        0.0003308845916762948
      ],
      "type": "VEC2"
    },
    {
      "bufferView": 0,
      "byteOffset": 7208808,
      "componentType": 5125,
      "count": 224436,
      "type": "SCALAR"
    },
    {
      "bufferView": 2,
      "byteOffset": 14154936,
      "componentType": 5126,
      "count": 65532,
      "max": [
        13.169245719909668,
        15.702716827392578,
        87.12327575683594
      ],
      "min": [
        -10.38776969909668,
        -4.853724956512451,
        9.347710609436035
      ],
      "type": "VEC3"
    },
    {
      "bufferView": 2,
      "byteOffset": 14941320,
      "componentType": 5126,
      "count": 65532,
      "max": [
        1.0,
        0.9999998211860657,
        0.9999979138374329
      ],
      "min": [
        -0.9999994039535522,
        -0.9999998211860657,
        -0.9999988079071045
      ],
      "type": "VEC3"
    },
    {
      "bufferView": 1,
      "byteOffset": 4718312,
      "componentType": 5126,
      "count": 65532,
      "max": [
        0.999742865562439,
        0.9812010526657104
      ],
      "min": [
        0.000244140625,
        0.00027265085373073816
      ],
      "type": "VEC2"
    },
    {
      "bufferView": 0,
      "byteOffset": 8106552,
      "componentType": 5125,
      "count": 236883,
      "type": "SCALAR"
    },
    {
      "bufferView": 2,
      "byteOffset": 15727704,
      "componentType": 5126,
      "count": 65532,
      "max": [
        5.649843692779541,
        14.718770980834961,
        87.0760498046875
      ],
      "min": [
        -15.550848960876465,
        -5.486971378326416,
        8.461368560791016
      ],
      "type": "VEC3"
    },
    {
      "bufferView": 2,
      "byteOffset": 16514088,
      "componentType": 5126,
      "count": 65532,
      "max": [
        0.9999998211860657,
        0.9999998211860657,
        0.9999955892562866
      ],
      "min": [
        -0.9999985694885254,
        -1.0,
        -0.9999983310699463
      ],
      "type": "VEC3"
    },
    {
      "bufferView": 1,
      "byteOffset": 5242568,
      "componentType": 5126,
      "count": 65532,
      "max": [
        0.999754011631012,
        0.9938963651657104
      ],
      "min": [
        0.000244140625,
        0.00024541153106838465
      ],
      "type": "VEC2"
    },
    {
      "bufferView": 0,
      "byteOffset": 9054084,
      "componentType": 5125,
      "count": 192540,
      "type": "SCALAR"
    },
    {
      "bufferView": 2,
      "byteOffset": 17300472,
      "componentType": 5126,
      "count": 65532,
      "max": [
        -0.6125470995903015,
        15.717299461364746,
        83.52544403076172
      ],
      "min": [
        -15.591463088989258,
        -11.238234519958496,
        8.37515640258789
      ],
      "type": "VEC3"
    },
    {
      "bufferView": 2,
      "byteOffset": 18086856,
      "componentType": 5126,
      "count": 65532,
      "max": [
        0.9999980330467224,
        0.9999968409538269,
        0.9999998211860657
      ],
      "min": [
        -0.9999982118606567,
        -0.9999998807907104,
        -0.9999973177909851
      ],
      "type": "VEC3"
    },
    {
      "bufferView": 1,
      "byteOffset": 5766824,
      "componentType": 5126,
      "count": 65532,
      "max": [
        0.999735414981842,
        0.9824857711791992
      ],
      "min": [
        0.000244140625,
        0.00026520027313381433
      ],
      "type": "VEC2"
    },
    {
      "bufferView": 0,
      "byteOffset": 9824244,
      "componentType": 5125,
      "count": 183027,
      "type": "SCALAR"
    },
    {
      "bufferView": 2,
      "byteOffset": 18873240,
      "componentType": 5126,
      "count": 65532,
      "max": [
        -1.628982424736023,
        8.913768768310547,
        87.14022827148438
      ],
      "min": [
        -7.79149866104126,
        -4.34436559677124,
        70.21489715576172
      ],
      "type": "VEC3"
    },
    {
      "bufferView": 2,
      "byteOffset": 19659624,
      "componentType": 5126,
      "count": 65532,
      "max": [
        0.9999992251396179,
        1.0,
        0.9999999403953552
      ],
      "min": [
        -1.0,
        -0.9999998211860657,
        -0.9999903440475464
      ],
      "type": "VEC3"
    },
    {
      "bufferView": 1,
      "byteOffset": 6291080,
      "componentType": 5126,
      "count": 65532,
      "max": [
        0.9997257590293884,
        0.9997557401657104
      ],
      "min": [
        0.000244140625,
        0.0002502991119399667
      ],
      "type": "VEC2"
    },
    {
      "bufferView": 0,
      "byteOffset": 10556352,
      "componentType": 5125,
      "count": 212466,
      "type": "SCALAR"
    },
    {
      "bufferView": 2,
      "byteOffset": 20446008,
      "componentType": 5126,
      "count": 46140,
      "max": [
        -1.5815049409866333,
        8.37313461303711,
        84.60569763183594
      ],
      "min": [
        -7.682654857635498,
        -4.324795722961426,
        46.968936920166016
      ],
      "type": "VEC3"
    },
    {
      "bufferView": 2,
      "byteOffset": 20999688,
      "componentType": 5126,
      "count": 46140,
      "max": [
        0.9999991655349731,
        0.9999998211860657,
        0.9999929666519165
      ],
      "min": [
        -1.0,
        -0.9999997019767761,
        -0.9999969005584717
      ],
      "type": "VEC3"
    },
    {
      "bufferView": 1,
      "byteOffset": 6815336,
      "componentType": 5126,
      "count": 46140,
      "max": [
        0.9997169375419617,
        0.9743651151657104
      ],
      "min": [
        0.000244140625,
        0.0006873203674331307
      ],
      "type": "VEC2"
    },
    {
      "bufferView": 0,
      "byteOffset": 11406216,
      "componentType": 5125,
      "count": 147882,
      "type": "SCALAR"
    }
  ],
  "asset": {
    "extras": {
      "author": "Katie Wolfe (https://sketchfab.com/katiewolfe)",
      "license": "CC-BY-4.0 (http://creativecommons.org/licenses/by/4.0/)",
      "source": "https://sketchfab.com/3d-models/bromo-seltzer-tower-2c5bdd2a41f646db93dd0357c40aa8e5",
      "title": "Bromo Seltzer Tower"
    },
    "generator": "Sketchfab-13.70.0",
    "version": "2.0"
  },
  "bufferViews": [
    {
      "buffer": 0,
      "byteLength": 11997744,
      "name": "floatBufferViews",
      "target": 34963
    },
    {
      "buffer": 0,
      "byteLength": 7184456,
      "byteOffset": 11997744,
      "byteStride": 8,
      "name": "floatBufferViews",
      "target": 34962
    },
    {
      "buffer": 0,
      "byteLength": 21553368,
      "byteOffset": 19182200,
      "byteStride": 12,
      "name": "floatBufferViews",
      "target": 34962
    }
  ],
  "buffers": [
    {
      "byteLength": 40735568,
      "uri": "scene.bin"
    }
  ],
  "images": [
    {
      "uri": "textures/tex_u1_v1_baseColor.jpeg"
    }
  ],
  "materials": [
    {
      "name": "tex_u1_v1",
      "pbrMetallicRoughness": {
        "baseColorTexture": {
          "index": 0
        },
        "metallicFactor": 0.0
      }
    }
  ],
  "meshes": [
    {
      "name": "Object_0",
      "primitives": [
        {
          "attributes": {
            "NORMAL": 1,
            "POSITION": 0,
            "TEXCOORD_0": 2
          },
          "indices": 3,
          "material": 0,
          "mode": 4
        }
      ]
    },
    {
      "name": "Object_1",
      "primitives": [
        {
          "attributes": {
            "NORMAL": 5,
            "POSITION": 4,
            "TEXCOORD_0": 6
          },
          "indices": 7,
          "material": 0,
          "mode": 4
        }
      ]
    },
    {
      "name": "Object_2",
      "primitives": [
        {
          "attributes": {
            "NORMAL": 9,
            "POSITION": 8,
            "TEXCOORD_0": 10
          },
          "indices": 11,
          "material": 0,
          "mode": 4
        }
      ]
    },
    {
      "name": "Object_3",
      "primitives": [
        {
          "attributes": {
            "NORMAL": 13,
            "POSITION": 12,
            "TEXCOORD_0": 14
          },
          "indices": 15,
          "material": 0,
          "mode": 4
        }
      ]
    },
    {
      "name": "Object_4",
      "primitives": [
        {
          "attributes": {
            "NORMAL": 17,
            "POSITION": 16,
            "TEXCOORD_0": 18
          },
          "indices": 19,
          "material": 0,
          "mode": 4
        }
      ]
    },
    {
      "name": "Object_5",
      "primitives": [
        {
          "attributes": {
            "NORMAL": 21,
            "POSITION": 20,
            "TEXCOORD_0": 22
          },
          "indices": 23,
          "material": 0,
          "mode": 4
        }
      ]
    },
    {
      "name": "Object_6",
      "primitives": [
        {
          "attributes": {
            "NORMAL": 25,
            "POSITION": 24,
            "TEXCOORD_0": 26
          },
          "indices": 27,
          "material": 0,
          "mode": 4
        }
      ]
    },
    {
      "name": "Object_7",
      "primitives": [
        {
          "attributes": {
            "NORMAL": 29,
            "POSITION": 28,
            "TEXCOORD_0": 30
          },
          "indices": 31,
          "material": 0,
          "mode": 4
        }
      ]
    },
    {
      "name": "Object_8",
      "primitives": [
        {
          "attributes": {
            "NORMAL": 33,
            "POSITION": 32,
            "TEXCOORD_0": 34
          },
          "indices": 35,
          "material": 0,
          "mode": 4
        }
      ]
    },
    {
      "name": "Object_9",
      "primitives": [
        {
          "attributes": {
            "NORMAL": 37,
            "POSITION": 36,
            "TEXCOORD_0": 38
          },
          "indices": 39,
          "material": 0,
          "mode": 4
        }
      ]
    },
    {
      "name": "Object_10",
      "primitives": [
        {
          "attributes": {
            "NORMAL": 41,
            "POSITION": 40,
            "TEXCOORD_0": 42
          },
          "indices": 43,
          "material": 0,
          "mode": 4
        }
      ]
    },
    {
      "name": "Object_11",
      "primitives": [
        {
          "attributes": {
            "NORMAL": 45,
            "POSITION": 44,
            "TEXCOORD_0": 46
          },
          "indices": 47,
          "material": 0,
          "mode": 4
        }
      ]
    },
    {
      "name": "Object_12",
      "primitives": [
        {
          "attributes": {
            "NORMAL": 49,
            "POSITION": 48,
            "TEXCOORD_0": 50
          },
          "indices": 51,
          "material": 0,
          "mode": 4
        }
      ]
    },
    {
      "name": "Object_13",
      "primitives": [
        {
          "attributes": {
            "NORMAL": 53,
            "POSITION": 52,
            "TEXCOORD_0": 54
          },
          "indices": 55,
          "material": 0,
          "mode": 4
        }
      ]
    }
  ],
  "nodes": [
    {
      "children": [
        1
      ],
      "matrix": [
        1.0,
        0.0,
        0.0,
        0.0,
        0.0,
        2.220446049250313e-16,
        -1.0,
        0.0,
        0.0,
        1.0,
        2.220446049250313e-16,
        0.0,
        0.0,
        0.0,
        0.0,
        1.0
      ],
      "name": "Sketchfab_model"
    },
    {
      "children": [
        2,
        3,
        4,
        5,
        6,
        7,
        8,
        9,
        10,
        11,
        12,
        13,
        14,
        15
      ],
      "name": "model.obj.cleaner.materialmerger.gles"
    },
    {
      "mesh": 0,
      "name": "Object_2"
    },
    {
      "mesh": 1,
      "name": "Object_3"
    },
    {
      "mesh": 2,
      "name": "Object_4"
    },
    {
      "mesh": 3,
      "name": "Object_5"
    },
    {
      "mesh": 4,
      "name": "Object_6"
    },
    {
      "mesh": 5,
      "name": "Object_7"
    },
    {
      "mesh": 6,
      "name": "Object_8"
    },
    {
      "mesh": 7,
      "name": "Object_9"
    },
    {
      "mesh": 8,
      "name": "Object_10"
    },
    {
      "mesh": 9,
      "name": "Object_11"
    },
    {
      "mesh": 10,
      "name": "Object_12"
    },
    {
      "mesh": 11,
      "name": "Object_13"
    },
    {
      "mesh": 12,
      "name": "Object_14"
    },
    {
      "mesh": 13,
      "name": "Object_15"
    }
  ],
  "samplers": [
    {
      "magFilter": 9729,
      "minFilter": 9987,
      "wrapS": 10497,
      "wrapT": 10497
    }
  ],
  "scene": 0,
  "scenes": [
    {
      "name": "Sketchfab_Scene",
      "nodes": [
        0
      ]
    }
  ],
  "textures": [
    {
      "sampler": 0,
      "source": 0
    }
  ]
}
